<mxfile host="app.diagrams.net" modified="2022-11-13T07:58:52.087Z" agent="5.0 (X11)" etag="IpeFWxFgSyU1noraY-0h" version="20.5.3" type="github">
  <diagram id="oTTh4CM8qg4IF8TCirh_" name="Page-1">
    <mxGraphModel dx="1422" dy="755" grid="1" gridSize="10" guides="1" tooltips="1" connect="1" arrows="1" fold="1" page="1" pageScale="1" pageWidth="850" pageHeight="1100" math="0" shadow="0">
      <root>
        <mxCell id="0" />
        <mxCell id="1" parent="0" />
        <mxCell id="VaMjoefTA9ukYxvcdDBw-1" value="Annie API" style="rounded=1;whiteSpace=wrap;html=1;" vertex="1" parent="1">
          <mxGeometry x="365" y="70" width="120" height="60" as="geometry" />
        </mxCell>
      </root>
    </mxGraphModel>
  </diagram>
</mxfile>
